<?xml version="1.0" encoding="UTF-8"?>
<svg width="410" height="404" viewBox="0 0 410 404" fill="none" xmlns="http://www.w3.org/2000/svg">
  <defs>
    <linearGradient id="paint0_linear" x1="-4.5" y1="32" x2="414" y2="32" gradientUnits="userSpaceOnUse">
      <stop stop-color="#41D1FF"/>
      <stop offset="1" stop-color="#BD34FE"/>
    </linearGradient>
    <linearGradient id="paint1_linear" x1="-4.5" y1="363.5" x2="414" y2="363.5" gradientUnits="userSpaceOnUse">
      <stop stop-color="#FFEA83"/>
      <stop offset="0.0833" stop-color="#FFDD35"/>
      <stop offset="1" stop-color="#FFA800"/>
    </linearGradient>
  </defs>
  <path d="M399.641 52.2304L215.641 388.23C210.346 397.756 196.439 397.716 191.205 388.159L10.1022 52.2304C4.79085 42.533 12.3783 30.7304 23.1022 31.2304L206.102 39.2304C207.124 39.2774 208.143 39.0997 209.078 38.7096C210.012 38.3194 210.838 37.7273 211.488 36.9804L264.488 -24.7696C269.933 -31.1326 280.067 -31.1326 285.512 -24.7696L338.512 36.9804C339.162 37.7273 339.988 38.3194 340.922 38.7096C341.857 39.0997 342.876 39.2774 343.898 39.2304L386.898 37.2304C397.622 36.7304 405.209 48.533 399.898 58.2304L399.641 52.2304Z" fill="url(#paint0_linear)"/>
  <path d="M171.777 338.023L205.082 278.44L107.999 108.5H170.5L212.5 182.5L254.5 108.5H316.5L219.5 278.44L252.723 338.023C261.056 352.89 240.944 352.89 249.277 338.023L282.5 278.44L378.89 108.5H312.223L273.5 176.5L234.777 108.5H168.223L64.1099 278.44L97.3328 338.023C105.666 352.89 85.5543 352.89 93.8872 338.023Z" fill="url(#paint1_linear)"/>
</svg>
